<svg xmlns="http://www.w3.org/2000/svg" xmlns:xlink="http://www.w3.org/1999/xlink" viewBox="0 0 327.93 454.39"><defs><style>.a{fill:url(#a);}.b{fill:#fff;}</style><radialGradient id="a" cx="201.35" cy="130.99" r="163.98" gradientTransform="matrix(1, 0, 0, -1, -37.31, 295.02)" gradientUnits="userSpaceOnUse"><stop offset="0.63" stop-color="#80c342"/><stop offset="1" stop-color="#246030"/></radialGradient></defs><title>Predix_Halo_Wordmark</title><path class="a" d="M164,328a63,63,0,0,1-31.52-8.52l-0.14-.08H132.2a68.56,68.56,0,0,1-7.88.46,62.07,62.07,0,0,1-48.63-23.13l-0.43-.54-0.34-.43H74.77c-16.41-5-29.29-15.35-37.24-30a66.36,66.36,0,0,1-5.15-12.47v-0.15l-0.12-.1A61.93,61.93,0,0,1,11,222.64,64.35,64.35,0,0,1,8.6,195.8v-0.16l-0.08-.14a62.58,62.58,0,0,1-.07-62.68l0.08-.14v-0.16A64.36,64.36,0,0,1,11,105.59,62,62,0,0,1,32.17,75l0.12-.1V74.77a66.42,66.42,0,0,1,5.2-12.47c8-14.74,20.92-25.14,37.42-30.09h0.15l0.67-.84A62.07,62.07,0,0,1,124.4,8.19a68.77,68.77,0,0,1,7.76.45h0.16l0.14-.08a62.6,62.6,0,0,1,63.09,0l0.14,0h0.16a68.72,68.72,0,0,1,7.62-.44,62.07,62.07,0,0,1,48.67,23.18L252.69,32h0.15c16.73,5,29.85,15.4,37.85,30.28A66.59,66.59,0,0,1,296,75.13v0.15l0.12,0.1a61.9,61.9,0,0,1,20.87,30.13,64.34,64.34,0,0,1,2.46,26.69v0.16l0.08,0.14a62.61,62.61,0,0,1-.07,63.17l-0.08.14V196a64.33,64.33,0,0,1-2.47,26.6,61.89,61.89,0,0,1-20.8,30.07l-0.12.1v0.15a66.5,66.5,0,0,1-5.26,12.81c-8,14.81-21,25.24-37.65,30.16h-0.15l-0.33.42-0.34.43a62.07,62.07,0,0,1-48.67,23.18,68.56,68.56,0,0,1-7.73-.45h-0.16l-0.14.08A63,63,0,0,1,164,328Zm-0.33-19.35a84.92,84.92,0,0,1-26.56,10l-1.44.35,1.35,0.66a60.33,60.33,0,0,0,54,0l1.35-.67-1.48-.27a84.86,84.86,0,0,1-26.69-10.07l-0.25-.14Zm55.69-10.24a84.77,84.77,0,0,1-19.56,18.48l-1.25.83,1.5,0.08c1.34,0.07,2.45.1,3.49,0.1a60.13,60.13,0,0,0,45-20l1.06-1.16-1.53.34A79.94,79.94,0,0,1,231,298.9a92.34,92.34,0,0,1-11.14-.71H219.6Zm-140.11-.54a60.13,60.13,0,0,0,45,20c1.08,0,2.24,0,3.65-.11l1.5-.08-1.25-.83a84.77,84.77,0,0,1-19.48-18.43l-0.17-.22h-0.28a92.14,92.14,0,0,1-11,.69A79.68,79.68,0,0,1,79.76,297l-1.54-.35Zm108.86-8.13a121.45,121.45,0,0,1-21.5,17.16l-0.73.45,0.75,0.41a80.16,80.16,0,0,0,28.41,9.6h0.17l0.15-.09a79.85,79.85,0,0,0,21.31-18.73l0.55-.67-0.86-.14a119.51,119.51,0,0,1-27.69-8.11l-0.31-.13Zm-48.85,0a119.31,119.31,0,0,1-27.64,8l-0.86.13,0.55,0.67a79.86,79.86,0,0,0,21.28,18.71l0.15,0.09h0.17a80.22,80.22,0,0,0,28.27-9.58l0.75-.41-0.73-.45a121.35,121.35,0,0,1-21.4-17.07l-0.24-.24Zm24.54-13a162.06,162.06,0,0,1-21.58,11.77l-0.67.3,0.53,0.51a117.37,117.37,0,0,0,21.59,16.73l0.26,0.15,0.26-.15a117.44,117.44,0,0,0,21.67-16.89l0.53-.51-0.67-.3a162.3,162.3,0,0,1-21.35-11.68l-0.27-.17Zm71-5a120.26,120.26,0,0,1-13.37,24l-0.51.7,0.86,0.09a89.55,89.55,0,0,0,9.15.5,76,76,0,0,0,20.6-2.74h0.16l0.1-.13a78.53,78.53,0,0,0,12.93-25.37L265,268l-0.86.22a115.68,115.68,0,0,1-28.2,3.34h-1Zm-171.74-3A78.58,78.58,0,0,0,75.92,294l0.1,0.13h0.16a75.84,75.84,0,0,0,21,2.86,89.25,89.25,0,0,0,9-.48l0.87-.09-0.51-.7a120.22,120.22,0,0,1-13.38-24L93,271.42H91.87A115.6,115.6,0,0,1,63.69,268l-0.86-.22Zm58.4-.24a161.56,161.56,0,0,1-25.55,2.88H95.19l0.29,0.68a116.15,116.15,0,0,0,13.7,23.85l0.18,0.24h0.29a115.29,115.29,0,0,0,27.72-7.69l0.68-.28-0.51-.53A160.83,160.83,0,0,1,122,268.75l-0.19-.26Zm84.35,0.2a160.74,160.74,0,0,1-15.47,18.83l-0.51.53,0.68,0.28A115.52,115.52,0,0,0,218.38,296h0.29l0.18-.24A116.27,116.27,0,0,0,232.53,272l0.29-.68h-0.74a161.56,161.56,0,0,1-25.72-2.89l-0.32-.06Zm86.07-12.87a84,84,0,0,1-24.39,11.35l-0.27.08-0.08.27a82.8,82.8,0,0,1-11.3,24.4L255,293.24l1.48-.54a59.59,59.59,0,0,0,32.45-27.86,62.38,62.38,0,0,0,3.75-8.41l0.53-1.47Zm-256.35.86a63.46,63.46,0,0,0,3.67,8.14,59.57,59.57,0,0,0,32,27.7l1.48,0.55-0.9-1.31a82.89,82.89,0,0,1-11.11-24.33l-0.08-.27-0.27-.08a84.19,84.19,0,0,1-24-11.08L35,255.15Zm87.51,10.07A158.51,158.51,0,0,0,139.81,287l0.24,0.25,0.32-.14a159.61,159.61,0,0,0,23.18-12.61l0.55-.36,0.55,0.36a159.94,159.94,0,0,0,23,12.51l0.32,0.14,0.24-.25a158.7,158.7,0,0,0,16.62-20.2l0.37-.54,0.64,0.13a159,159,0,0,0,27.52,3.06h0.33l0.13-.32a156.5,156.5,0,0,0,8-26.49l0.13-.64,0.64-.13a156.51,156.51,0,0,0,26.44-8l0.32-.13v-0.34a159.88,159.88,0,0,0-3.07-27.4l-0.13-.64,0.54-.37A158.52,158.52,0,0,0,287.09,188l0.25-.24-0.14-.32a164.08,164.08,0,0,0-12.61-22.95l-0.36-.55,0.36-.55a164.12,164.12,0,0,0,12.56-22.84l0.14-.32L287,140a158.57,158.57,0,0,0-20.5-16.9l-0.54-.37,0.13-.64a159.87,159.87,0,0,0,3.07-27.46V94.29l-0.32-.13a156.68,156.68,0,0,0-26.36-7.92l-0.64-.13-0.13-.64a156.57,156.57,0,0,0-8-26.46l-0.06-.27h-0.34A159.12,159.12,0,0,0,205.9,61.8l-0.64.13-0.37-.54a158.61,158.61,0,0,0-16.7-20.28L188,40.86l-0.32.14a160,160,0,0,0-23,12.51l-0.55.36-0.55-.36A159.66,159.66,0,0,0,140.35,40.9L140,40.76l-0.24.25A158.52,158.52,0,0,0,123,61.39l-0.37.54L122,61.8a159.35,159.35,0,0,0-27.29-3.06H94.34l-0.13.32a156.64,156.64,0,0,0-8,26.45l-0.13.64-0.64.13a156.69,156.69,0,0,0-26.52,8l-0.32.13v0.34a160,160,0,0,0,3.07,27.4l0.13,0.64-0.54.37A158.77,158.77,0,0,0,41,139.84l-0.25.24,0.14,0.32a163.75,163.75,0,0,0,12.66,23.06L54,164l-0.36.55a160.77,160.77,0,0,0-12.66,23.22l-0.14.32,0.25,0.24A158.78,158.78,0,0,0,61.25,205l0.54,0.37-0.13.64a160,160,0,0,0-3.07,27.33v0.34l0.32,0.13a156.3,156.3,0,0,0,26.61,8l0.64,0.13,0.13,0.64a156.6,156.6,0,0,0,8,26.49l0.13,0.32h0.27A159.31,159.31,0,0,0,122,266.28l0.64-.13Zm-64.5-30.3a113.07,113.07,0,0,0,3.57,28.79l0.07,0.28,0.28,0.08a112.27,112.27,0,0,0,29,3.74h0.74L92,268.68a158.68,158.68,0,0,1-7.46-24.78l-0.07-.32-0.32-.07A158.6,158.6,0,0,1,59.2,236l-0.69-.27v0.74h0Zm210.07-.4a158.73,158.73,0,0,1-24.73,7.44l-0.32.07-0.07.32a158.68,158.68,0,0,1-7.45,24.78l-0.27.69h0.74a112.15,112.15,0,0,0,28.86-3.74l0.28-.08,0.07-.28a113,113,0,0,0,3.57-28.73v-0.74Zm-237-14.23A79.34,79.34,0,0,0,34,251.72v0.16l0.13,0.1a79.49,79.49,0,0,0,25,12.67L60,264.91l-0.2-.89a117.14,117.14,0,0,1-3.2-28.79V234.9l-0.31-.13a120.2,120.2,0,0,1-23.84-13.3L31.69,221Zm264.22-.51a120.11,120.11,0,0,1-24.23,13.53l-0.31.13v0.33a117.11,117.11,0,0,1-3.2,28.72l-0.21.86,0.85-.26a79.29,79.29,0,0,0,25.34-12.94l0.13-.1v-0.16a80.3,80.3,0,0,0,2.38-29.76l-0.09-.87ZM10.15,200a61.92,61.92,0,0,0,2.71,22,59.57,59.57,0,0,0,17.35,26.72l1.16,1L31,248.15A83.74,83.74,0,0,1,29.8,220l0.06-.5-0.17-.11a84.71,84.71,0,0,1-18.58-19.69l-0.83-1.25Zm306.68,0a84.74,84.74,0,0,1-18.28,19.36l-0.22.17,0.08,0.6a83.94,83.94,0,0,1-1.15,27.8l-0.34,1.54,1.16-1.06A59.53,59.53,0,0,0,315,222a61.9,61.9,0,0,0,2.67-21.83l-0.08-1.5Zm-29.14-9.68A160.49,160.49,0,0,1,268.57,206l-0.26.19,0.06,0.32a162.08,162.08,0,0,1,2.89,25.6v0.74l0.68-.29A116.09,116.09,0,0,0,296,218.72l0.23-.18v-0.29a112.28,112.28,0,0,0-7.76-27.79l-0.28-.68Zm-248,.44A114.46,114.46,0,0,0,32,218.4v0.29l0.23,0.18A116.23,116.23,0,0,0,56,232.48l0.68,0.29V232a162.12,162.12,0,0,1,2.88-25.53l0.06-.32L59.31,206A160.78,160.78,0,0,1,40.5,190.56L40,190ZM20.16,166.84A80,80,0,0,0,10.62,195v0.17l0.07,0.11a79.8,79.8,0,0,0,18.8,21.43l0.68,0.55,0.13-.86a118.25,118.25,0,0,1,8-27.59l0.13-.31-0.24-.24A121.89,121.89,0,0,1,21,166.81l-0.45-.73Zm286.68,0A121.6,121.6,0,0,1,289.9,188l-0.24.24,0.13,0.31a118.28,118.28,0,0,1,8.08,27.71l0.13,0.86,0.67-.55a79.86,79.86,0,0,0,18.54-21.08l0.09-.15v-0.17a79.88,79.88,0,0,0-9.61-28.35l-0.41-.75Zm11.85-29.69a84.79,84.79,0,0,1-10.11,26.71l-0.14.25,0.14,0.25A84.68,84.68,0,0,1,318.69,191L319,192.5l0.67-1.35a60.32,60.32,0,0,0,.06-54.13L319,135.67Zm-310.47.12a60.34,60.34,0,0,0,.06,53.63l0.66,1.35,0.28-1.48a84.85,84.85,0,0,1,10-26.42l0.14-.25-0.14-.25a85,85,0,0,1-10-26.45l-0.28-1.48Zm30.57,4.82a117.73,117.73,0,0,0-17,21.76l-0.15.26,0.15,0.26A117.92,117.92,0,0,0,38.77,186l0.51,0.53,0.3-.67A163.22,163.22,0,0,1,51.4,164.27l0.18-.27-0.18-.27a163.11,163.11,0,0,1-11.77-21.5l-0.3-.67Zm249.64,0.37a163.49,163.49,0,0,1-11.67,21.27l-0.18.27,0.18,0.27a163.23,163.23,0,0,1,11.72,21.38l0.3,0.67,0.51-.53A117.63,117.63,0,0,0,306,164.35l0.15-.26-0.15-.26a117.56,117.56,0,0,0-16.72-21.54l-0.51-.53Zm-259-31.15a79.71,79.71,0,0,0-18.89,21.56l-0.09.15v0.17a80.12,80.12,0,0,0,9.61,28.2l0.41,0.75,0.45-.73a121.68,121.68,0,0,1,17.22-21.58l0.24-.24-0.13-.31a118.32,118.32,0,0,1-8-27.66l-0.13-.86Zm268.36,0.42a118.53,118.53,0,0,1-8.12,27.78l-0.13.31,0.24,0.24a121.54,121.54,0,0,1,17,21.35l0.45,0.73,0.41-.75A80,80,0,0,0,317.28,133v-0.17l-0.09-.15a79.77,79.77,0,0,0-18.5-21.21l-0.67-.55ZM271.09,95.9a162,162,0,0,1-2.89,25.67l-0.06.32,0.26,0.19a160.56,160.56,0,0,1,19.12,15.76l0.53,0.51,0.28-.68a112.45,112.45,0,0,0,7.81-27.85v-0.29l-0.23-.18a116.13,116.13,0,0,0-24.16-13.89l-0.68-.29ZM55.93,95.53a116.23,116.23,0,0,0-23.85,13.71l-0.23.18v0.29a112.21,112.21,0,0,0,7.84,27.73L40,138.12l0.53-.51a160.57,160.57,0,0,1,18.89-15.54l0.26-.19-0.06-.32A162.14,162.14,0,0,1,56.69,96V95.28ZM30.21,79.31a59.57,59.57,0,0,0-17.44,26.8,61.93,61.93,0,0,0-2.71,22.11l0.08,1.5L11,128.46a84.63,84.63,0,0,1,18.72-19.82l0.22-.17-0.07-.54a83.74,83.74,0,0,1,1.23-28.15l0.34-1.52Zm267,0.84a84,84,0,0,1,1.15,27.78l-0.08.64,0.22,0.17a84.73,84.73,0,0,1,18.37,19.47l0.84,1.25,0.08-1.5a61.89,61.89,0,0,0-2.72-21.87,59.51,59.51,0,0,0-17-26.43l-1.16-1.06ZM268,64a117,117,0,0,1,3.21,28.71V93l0.31,0.13a120.16,120.16,0,0,1,24.31,13.56l0.71,0.52,0.09-.87a80.32,80.32,0,0,0-2.36-29.78V76.42l-0.13-.1a79.4,79.4,0,0,0-25.47-13l-0.85-.26Zm-208.79-.6A79.63,79.63,0,0,0,34.23,76l-0.13.1v0.16a80.2,80.2,0,0,0-2.46,30l0.05,0.8,0.71-.51a120.14,120.14,0,0,1,24-13.39l0.31-.13V92.75A117.07,117.07,0,0,1,59.86,64l0.21-.86Zm32.28-4.66a112.39,112.39,0,0,0-28.92,3.69l-0.28.08-0.07.28a113,113,0,0,0-3.55,28.72v0.74L59.38,92A158.66,158.66,0,0,1,84.2,84.53l0.32-.07,0.07-.32A158.66,158.66,0,0,1,92,59.39l0.27-.69H91.56Zm144.57,0.69a158.72,158.72,0,0,1,7.44,24.75l0.07,0.32,0.32,0.07A158.86,158.86,0,0,1,268.56,92l0.69,0.27V91.52a113,113,0,0,0-3.56-28.76l-0.07-.28-0.28-.08a112.27,112.27,0,0,0-28.75-3.69h-0.74Zm19.61-23.37a82.72,82.72,0,0,1,11.39,24.5l0.08,0.27,0.27,0.08a84.07,84.07,0,0,1,24.5,11.36l1.28,0.88-0.52-1.48a62.52,62.52,0,0,0-3.76-8.44A59.59,59.59,0,0,0,256.3,35.32l-1.48-.54ZM71.43,35.49a59.59,59.59,0,0,0-32.2,27.77,62.14,62.14,0,0,0-3.65,8.14L35,72.86,36.32,72a84.33,84.33,0,0,1,24.1-11.08l0.27-.07,0.08-.27A82.78,82.78,0,0,1,72,36.24l0.9-1.3ZM236,56.7A115.72,115.72,0,0,1,264,60l0.86,0.21-0.22-.83a78.44,78.44,0,0,0-13-25.46l-0.1-.13h-0.16A76.13,76.13,0,0,0,231,31a89.44,89.44,0,0,0-9.18.5l-0.86.09,0.51,0.7a120.22,120.22,0,0,1,13.42,24.06L235,56.68h1.06v0ZM97.22,31a75.92,75.92,0,0,0-20.83,2.81H76.23l-0.1.13A78.52,78.52,0,0,0,63.2,59.3l-0.26.85,0.86-.21a115.72,115.72,0,0,1,28-3.3H93l0.13-.31a120.23,120.23,0,0,1,13.43-24.08l0.51-.7-0.87-.09A89.58,89.58,0,0,0,97.22,31Zm121.12,1a115.59,115.59,0,0,0-27.78,7.76l-0.67.24,0.51,0.53a160.84,160.84,0,0,1,15.55,18.91l0.19,0.26,0.32-.06a161.5,161.5,0,0,1,25.65-2.89h0.74L232.54,56a116.23,116.23,0,0,0-13.73-23.9l-0.18-.24Zm-109.1.17A116.22,116.22,0,0,0,95.49,56.12l-0.29.68h0.74a161.74,161.74,0,0,1,25.49,2.88l0.32,0.06,0.19-.26a160.6,160.6,0,0,1,15.63-19l0.51-.53-0.68-.28A115.33,115.33,0,0,0,109.69,32H109.4ZM163.69,22a117.22,117.22,0,0,0-21.58,16.77l-0.53.51,0.67,0.3A162.09,162.09,0,0,1,163.82,51.3l0.27,0.17,0.27-.17a162.3,162.3,0,0,1,21.33-11.67l0.67-.3-0.53-.51A117.36,117.36,0,0,0,164.19,22l-0.26-.15Zm31.42-11.27a80.08,80.08,0,0,0-28.42,9.57l-0.75.41,0.75,0.46a121.27,121.27,0,0,1,21.5,17.13l0.24,0.24,0.31-.13a119.51,119.51,0,0,1,27.69-8.1l0.86-.14-0.6-.68a79.83,79.83,0,0,0-21.27-18.69l-0.15-.09Zm-62.5.08a79.82,79.82,0,0,0-21.23,18.66l-0.55.67,0.86,0.14a119.31,119.31,0,0,1,27.6,8l0.31,0.13,0.24-.24a121.15,121.15,0,0,1,21.4-17l0.73-.45-0.75-.41a80.1,80.1,0,0,0-28.3-9.55h-0.17Zm-8.2-.62A60.14,60.14,0,0,0,79.47,30.07l-1.06,1.17L80,30.9A79.81,79.81,0,0,1,97.22,29a92.08,92.08,0,0,1,11,.7h0.28l0.17-.22a84.75,84.75,0,0,1,19.47-18.39l1.25-.83-1.5-.08c-1.33,0-2.45,0-3.49,0h0ZM231,29a80.05,80.05,0,0,1,16.88,1.76l1.53,0.33L248.34,30a60.14,60.14,0,0,0-44.86-19.83c-1,0-2.06,0-3.37.1l-1.51.08,1.25,0.84a84.75,84.75,0,0,1,19.5,18.42l0.17,0.22h0.28A92.17,92.17,0,0,1,231,29ZM164,2a60.64,60.64,0,0,0-27,6.4l-1.35.67,1.48,0.27a84.84,84.84,0,0,1,26.59,10L164,19.5l0.25-.14a84.76,84.76,0,0,1,26.71-10l1.49-.27-1.35-.67A60.64,60.64,0,0,0,164,2Z" transform="translate(-0.07 -0.03)"/><path class="b" d="M39.77,422.35H26.35v26.59c0,3.66-1.83,5-5.61,5s-5.73-1.34-5.73-5V380.87c0-6.34,3.17-10.61,10.61-10.61h15c17.2,0,26.46,10.13,26.46,26.32C67.08,411.58,56.48,422.35,39.77,422.35ZM40.38,381h-12a2.11,2.11,0,0,0-2.08,2.14q0,0.09,0,.18v28.42H40.26c9.76,0,15.49-6.47,15.49-15.13C55.75,386.73,51.08,381,40.38,381Z" transform="translate(-0.07 -0.03)"/><path class="b" d="M107.87,401.37a7.86,7.86,0,0,1-2.44-.37,14,14,0,0,0-4.15-.73c-7.93,0-13.66,6.34-13.66,17.81v30.86c0,3.78-2,5-5.61,5-3.17,0-5.49-1.22-5.49-5V395c0-3.66,2.07-4.76,5.61-4.76,3.17,0,5.49,1.1,5.49,4.76v3.78a16.06,16.06,0,0,1,14.88-9,15.08,15.08,0,0,1,6.83,1.34A4.44,4.44,0,0,1,112,395.3C112,398.93,109.94,401.37,107.87,401.37Z" transform="translate(-0.07 -0.03)"/><path class="b" d="M159.47,426.13H124.34c1,11.47,7.81,18.06,17.57,18.06a21.61,21.61,0,0,0,12.2-3.54c1.83-1.22,3.42-2,4.64-2,2.81,0,5,3,5,5.25s-1,3.66-4.88,6a31.64,31.64,0,0,1-17.2,4.51c-18.42,0-28.79-13.05-28.79-31.84,0-18.18,9.52-32.82,28.18-32.82,15.86,0,25.37,11.47,25.37,28.06C166.43,422.35,165,426.13,159.47,426.13Zm-34.89-9.88H155.2C155,407.71,150.32,400,140.93,400,131.17,400,125.56,407.23,124.58,416.25Z" transform="translate(-0.07 -0.03)"/><path class="b" d="M222.08,454c-3.17,0-5.73-1.1-5.73-4.64v-3.9c-2.44,4.39-8.05,9-17.08,9-15.62,0-25.62-12.08-25.62-32.21,0-19.4,10.13-32.45,26.35-32.45,8.42,0,13.79,4.27,16.35,8.66V366.58c0-3.66,2.2-4.88,5.61-4.88s5.49,1.22,5.49,4.88v82.47C227.41,452.85,225.46,454,222.08,454Zm-5.73-37.21c0-9.27-5.61-16.71-15.13-16.71-10.49,0-16.35,9.52-16.35,22.2,0,13.79,6.1,22,16.35,22,9.88,0,15.13-8.05,15.13-16.71V416.74Z" transform="translate(-0.07 -0.03)"/><path class="b" d="M247.18,378.58a6.53,6.53,0,1,1,6.59-6.47A6.54,6.54,0,0,1,247.18,378.58ZM247.08,454c-3.42,0-5.37-1.34-5.37-4.88v-54c0-3.66,2.07-4.76,5.49-4.76s5.61,1.1,5.61,4.76v54C252.79,452.58,250.59,454,247.08,454Z" transform="translate(-0.07 -0.03)"/><path class="b" d="M296.2,421.58c7.69,6.59,17,16.35,17,27.08,0,3.66-2,5.25-5.73,5.25-3.42,0-5-1.46-5.37-4.88-1.22-9.15-8.42-16.35-14.15-21-6.1,4.76-14.4,12.57-15.37,21.1-0.37,3.42-1.83,4.76-5.73,4.76s-5.37-2-5.37-5.49c0-10.13,10.13-20.37,18.3-27C272.7,414.93,264,404.56,264,395.29c0-3.54,2-5.12,5.61-5.12s5.25,1.46,5.73,5c1,8.17,7.69,15.13,12.81,20,5.49-5.12,13.18-12.44,14-20,0.49-3.54,2-5,5.73-5s5.61,1.71,5.61,5.25C313.52,405,303.88,414.91,296.2,421.58Z" transform="translate(-0.07 -0.03)"/></svg>