
<svg width="595px" height="95px" viewBox="1131 1505 595 95" version="1.1" xmlns="http://www.w3.org/2000/svg" xmlns:xlink="http://www.w3.org/1999/xlink">
    <!-- Generator: Sketch 3.8.3 (29802) - http://www.bohemiancoding.com/sketch -->
    <desc>Created with Sketch.</desc>
    <defs></defs>
    <g id="Group-17" stroke="none" stroke-width="1" fill="none" fill-rule="evenodd" transform="translate(1131.000000, 1505.000000)">
        <polygon id="Shape" fill="#2885AE" points="224.730461 0.254464286 224.730461 94.7243304 307.226453 94.7243304 307.226453 77.9296875 245.354459 77.9296875 245.354459 56.2366071 296.558868 56.2366071 296.558868 38.7421875 245.354459 38.7421875 245.354459 17.0491071 307.226453 17.0491071 307.226453 0.254464286"></polygon>
        <path d="M356.297345,77.2299107 L371.943136,77.2299107 C383.321894,77.2299107 392.567134,73.7310268 398.256513,68.1328125 C403.945892,62.5345982 406.790581,54.8370536 406.079409,46.4397321 C405.368236,32.4441964 396.122996,17.0491071 371.943136,17.0491071 L356.297345,17.0491071 L356.297345,77.2299107 L356.297345,77.2299107 L356.297345,77.2299107 Z M336.384519,94.7243304 L336.384519,0.254464286 L372.654309,0.254464286 C389.722445,0.254464286 403.945892,5.15290179 413.902305,14.9497768 C422.436373,22.6473214 426.703407,34.5435268 427.414579,47.1395089 C427.414579,59.7354911 423.147545,71.6316964 414.613477,80.0290179 C404.657064,89.8258929 390.433617,94.7243304 372.654309,94.7243304 L336.384519,94.7243304 L336.384519,94.7243304 L336.384519,94.7243304 Z" id="Shape" fill="#2885AE"></path>
        <polygon id="Shape" fill="#2885AE" points="452.305611 94.7243304 472.929609 94.7243304 472.929609 0.254464286 452.305611 0.254464286 452.305611 47.1395089"></polygon>
        <path d="M44.8038577,0.254464286 L0,0.254464286 L0,94.7243304 L20.623998,94.7243304 L20.623998,65.3337054 L44.8038577,65.3337054 C72.5395792,65.3337054 85.3406814,48.5390625 85.3406814,32.4441964 C85.3406814,16.3493304 72.5395792,0.254464286 44.8038577,0.254464286 L44.8038577,0.254464286 Z M44.8038577,48.5390625 L20.623998,48.5390625 L20.623998,17.0491071 L44.8038577,17.0491071 C58.3161323,17.0491071 64.7166834,23.3470982 64.7166834,31.7444196 C64.7166834,40.1417411 58.3161323,48.5390625 44.8038577,48.5390625 L44.8038577,48.5390625 Z" id="Shape" fill="#2885AE"></path>
        <path d="M196.283567,94.7243304 L170.681363,63.234375 C187.749499,58.3359375 196.283567,45.0401786 196.283567,31.7444196 C196.283567,15.6495536 183.482465,0.254464286 155.746743,0.254464286 L110.942886,0.254464286 L110.942886,94.7243304 L131.566884,94.7243304 L131.566884,65.3337054 L149.346192,65.3337054 L172.103707,94.7243304 L196.283567,94.7243304 L196.283567,94.7243304 L196.283567,94.7243304 Z M130.855711,17.0491071 L155.035571,17.0491071 C168.547846,17.0491071 174.948397,23.3470982 174.948397,31.7444196 C174.948397,40.1417411 168.547846,47.8392857 155.035571,47.8392857 L130.855711,47.8392857 L130.855711,17.0491071 L130.855711,17.0491071 Z" id="Shape" fill="#2885AE"></path>
        <g id="Group" transform="translate(494.828813, 0.000000)">
            <polygon id="Shape" fill="#2885AE" points="64.8638225 44.3404018 99.000095 0.254464286 74.8202353 0.254464286 49.9292032 33.1439732 25.0381712 0.254464286 0.85831145 0.254464286 35.7057563 44.3404018"></polygon>
            <polygon id="Shape" fill="#39B3D2" points="35.7057563 50.6383929 0.85831145 94.7243304 25.0381712 94.7243304 49.9292032 61.8348214 74.8202353 94.7243304 99.000095 94.7243304 64.8638225 50.6383929"></polygon>
        </g>
    </g>
</svg>
